<svg xmlns="http://www.w3.org/2000/svg" xmlns:xlink="http://www.w3.org/1999/xlink" width="500" zoomAndPan="magnify" viewBox="0 0 375 374.999991" height="500" preserveAspectRatio="xMidYMid meet" version="1.0"><defs><g/><clipPath id="6b217ffcd6"><path d="M 77.613281 83.351562 L 349.863281 83.351562 L 349.863281 251 L 77.613281 251 Z M 77.613281 83.351562 " clip-rule="nonzero"/></clipPath><clipPath id="998b4756b1"><path d="M 152 204 L 192 204 L 192 264.101562 L 152 264.101562 Z M 152 204 " clip-rule="nonzero"/></clipPath><clipPath id="2077e65c14"><path d="M 5 0.121094 L 86 0.121094 L 86 140 L 5 140 Z M 5 0.121094 " clip-rule="nonzero"/></clipPath><clipPath id="84cd109194"><rect x="0" width="89" y="0" height="197"/></clipPath><clipPath id="c7f51c5302"><path d="M 344 94 L 360 94 L 360 117.214844 L 344 117.214844 Z M 344 94 " clip-rule="nonzero"/></clipPath><clipPath id="1b793bcb43"><path d="M 314.457031 76 L 353 76 L 353 117.214844 L 314.457031 117.214844 Z M 314.457031 76 " clip-rule="nonzero"/></clipPath></defs><g clip-path="url(#6b217ffcd6)"><path fill="#8c52ff" d="M 77.613281 250.972656 L 108.75 250.972656 C 108.75 227.078125 108.75 197.308594 108.75 170.410156 C 122.398438 170.410156 136.046875 170.410156 149.695312 170.410156 C 149.695312 177.523438 149.695312 184.589844 149.695312 191.613281 C 156.984375 183.042969 164.226562 176.773438 171.382812 172.886719 C 184.765625 165.554688 204.597656 164.40625 217.757812 172.753906 C 223.765625 176.507812 228.886719 182.648438 233.128906 191.039062 C 239.3125 183.042969 246.023438 176.992188 253.402344 172.972656 C 269.523438 164.183594 295.933594 163.964844 308.523438 178.804688 C 316.648438 188.476562 318.550781 203.316406 318.550781 215.507812 C 318.550781 232.46875 318.550781 239.179688 318.550781 250.972656 L 349.6875 250.972656 L 349.6875 83.355469 L 77.613281 132.824219 Z M 77.613281 250.972656 " fill-opacity="1" fill-rule="evenodd"/></g><path fill="#8c52ff" d="M 274.511719 250.972656 L 235.644531 250.972656 L 235.644531 221.46875 C 235.644531 212.105469 243.285156 204.464844 252.652344 204.464844 L 257.507812 204.464844 C 266.871094 204.464844 274.511719 212.105469 274.511719 221.46875 Z M 274.511719 250.972656 " fill-opacity="1" fill-rule="evenodd"/><g clip-path="url(#998b4756b1)"><path fill="#8c52ff" d="M 152.785156 264.269531 L 169.878906 250.972656 L 191.609375 250.972656 L 191.609375 221.46875 C 191.609375 212.105469 183.96875 204.464844 174.605469 204.464844 L 169.746094 204.464844 C 160.429688 204.464844 152.785156 212.152344 152.785156 221.46875 Z M 152.785156 264.269531 " fill-opacity="1" fill-rule="evenodd"/></g><g transform="matrix(1, 0, 0, 1, 14, 111)"><g clip-path="url(#84cd109194)"><g clip-path="url(#2077e65c14)"><g fill="#ffffff" fill-opacity="1"><g transform="translate(1.06919, 139.671168)"><g><path d="M 84.078125 -108.03125 L 84.078125 -89.140625 C 84.078125 -78.109375 81.546875 -69.929688 76.484375 -64.609375 C 71.429688 -59.296875 64.363281 -56.640625 55.28125 -56.640625 L 38.921875 -56.640625 L 38.921875 0 L 4.28125 0 L 4.28125 -138.96875 L 51.96875 -138.96875 C 62.21875 -138.96875 70.128906 -136.273438 75.703125 -130.890625 C 81.285156 -125.503906 84.078125 -117.882812 84.078125 -108.03125 Z M 53.71875 -87.984375 L 53.71875 -107.640625 C 53.71875 -112.953125 50.992188 -115.609375 45.546875 -115.609375 L 38.921875 -115.609375 L 38.921875 -80 L 45.546875 -80 C 50.992188 -80 53.71875 -82.660156 53.71875 -87.984375 Z M 53.71875 -87.984375 "/></g></g></g></g></g></g><g clip-path="url(#c7f51c5302)"><path fill="#ffffff" d="M 358.875 111.820312 L 348.894531 94.535156 L 344.492188 102.167969 L 352.265625 115.632812 C 352.96875 116.851562 354.25 117.542969 355.570312 117.542969 C 356.214844 117.542969 356.871094 117.375 357.472656 117.027344 C 359.304688 115.96875 359.925781 113.648438 358.875 111.820312 Z M 358.875 111.820312 " fill-opacity="1" fill-rule="nonzero"/></g><g clip-path="url(#1b793bcb43)"><path fill="#ffffff" d="M 351.871094 85.042969 L 347.640625 92.375 L 343.230469 100.003906 L 336.414062 111.8125 C 334.371094 115.351562 330.5625 117.550781 326.476562 117.550781 C 322.332031 117.550781 318.613281 115.40625 316.535156 111.8125 C 314.457031 108.226562 314.457031 103.929688 316.535156 100.332031 L 328.464844 79.6875 C 329.699219 77.542969 331.917969 76.257812 334.390625 76.257812 C 336.863281 76.257812 339.082031 77.542969 340.328125 79.6875 L 340.757812 80.4375 L 341.992188 82.570312 L 337.582031 90.203125 L 334.390625 84.675781 L 323.15625 104.144531 C 322.152344 105.875 322.816406 107.410156 323.15625 107.992188 C 323.492188 108.574219 324.484375 109.921875 326.488281 109.921875 C 327.855469 109.921875 329.136719 109.179688 329.8125 107.992188 L 338.828125 92.375 L 343.238281 84.742188 L 345.261719 81.230469 C 346.320312 79.40625 348.652344 78.777344 350.476562 79.835938 C 352.304688 80.886719 352.929688 83.214844 351.871094 85.042969 Z M 351.871094 85.042969 " fill-opacity="1" fill-rule="nonzero"/></g><path fill="#ffffff" d="M 350.019531 75.980469 C 352.058594 80.574219 358.867188 77.757812 357.070312 73.058594 C 355.019531 68.46875 348.210938 71.289062 350.019531 75.980469 Z M 350.019531 75.980469 " fill-opacity="1" fill-rule="nonzero"/></svg>