<svg xmlns="http://www.w3.org/2000/svg" xmlns:xlink="http://www.w3.org/1999/xlink" width="1280" zoomAndPan="magnify" viewBox="0 0 960 540.000001" height="720" preserveAspectRatio="xMidYMid meet" version="1.0"><defs><g/><clipPath id="e049fa4300"><path d="M 3 0.117188 L 31 0.117188 L 31 105 L 3 105 Z M 3 0.117188 " clip-rule="nonzero"/></clipPath><clipPath id="db775d4481"><path d="M 36 0.117188 L 98 0.117188 L 98 105 L 36 105 Z M 36 0.117188 " clip-rule="nonzero"/></clipPath><clipPath id="3fc0e04901"><path d="M 100 0.117188 L 159 0.117188 L 159 105 L 100 105 Z M 100 0.117188 " clip-rule="nonzero"/></clipPath><clipPath id="d9948824cd"><path d="M 162 0.117188 L 209 0.117188 L 209 105 L 162 105 Z M 162 0.117188 " clip-rule="nonzero"/></clipPath><clipPath id="153adbf3a4"><path d="M 213 0.117188 L 275 0.117188 L 275 105 L 213 105 Z M 213 0.117188 " clip-rule="nonzero"/></clipPath><clipPath id="7653cc56c5"><path d="M 278 0.117188 L 344 0.117188 L 344 105 L 278 105 Z M 278 0.117188 " clip-rule="nonzero"/></clipPath><clipPath id="10583bb8c3"><path d="M 347 0.117188 L 375 0.117188 L 375 105 L 347 105 Z M 347 0.117188 " clip-rule="nonzero"/></clipPath><clipPath id="9ffa6fcf03"><path d="M 380 0.117188 L 427 0.117188 L 427 105 L 380 105 Z M 380 0.117188 " clip-rule="nonzero"/></clipPath><clipPath id="44ae8c035c"><path d="M 428 0.117188 L 536 0.117188 L 536 105 L 428 105 Z M 428 0.117188 " clip-rule="nonzero"/></clipPath><clipPath id="ec5d012d50"><rect x="0" width="537" y="0" height="147"/></clipPath><clipPath id="08e910bf1b"><rect x="0" width="475" y="0" height="149"/></clipPath><clipPath id="c6d76efbf6"><path d="M 824 125 L 959.113281 125 L 959.113281 487 L 824 487 Z M 824 125 " clip-rule="nonzero"/></clipPath><clipPath id="f7525adaf6"><path d="M 637.015625 153.449219 L 729.097656 153.449219 L 729.097656 254.511719 L 637.015625 254.511719 Z M 637.015625 153.449219 " clip-rule="nonzero"/></clipPath></defs><g transform="matrix(1, 0, 0, 1, 74, 152)"><g clip-path="url(#ec5d012d50)"><g clip-path="url(#e049fa4300)"><g fill="#f1f1f1" fill-opacity="1"><g transform="translate(0.797059, 104.227666)"><g><path d="M 29.46875 0 L 2.765625 0 L 2.765625 -103.65625 L 29.46875 -103.65625 Z M 29.46875 0 "/></g></g></g></g><g clip-path="url(#db775d4481)"><g fill="#f1f1f1" fill-opacity="1"><g transform="translate(33.02469, 104.227666)"><g><path d="M 41.078125 -52.109375 L 41.375 -52.109375 L 41.375 -103.65625 L 64.015625 -103.65625 L 64.015625 0 L 41.375 0 L 26.28125 -57.921875 L 25.84375 -57.921875 L 25.84375 0 L 3.1875 0 L 3.1875 -103.65625 L 25.84375 -103.65625 Z M 41.078125 -52.109375 "/></g></g></g></g><g clip-path="url(#3fc0e04901)"><g fill="#f1f1f1" fill-opacity="1"><g transform="translate(100.238173, 104.227666)"><g><path d="M 58.65625 -82.75 L 42.828125 -82.75 L 42.828125 0 L 16.109375 0 L 16.109375 -82.75 L 0.296875 -82.75 L 0.296875 -103.65625 L 58.65625 -103.65625 Z M 58.65625 -82.75 "/></g></g></g></g><g clip-path="url(#d9948824cd)"><g fill="#f1f1f1" fill-opacity="1"><g transform="translate(159.176992, 104.227666)"><g><path d="M 48.34375 -82.75 L 29.90625 -82.75 L 29.90625 -63.734375 L 47.1875 -63.734375 L 47.1875 -43.703125 L 29.90625 -43.703125 L 29.90625 -20.90625 L 49.796875 -20.90625 L 49.796875 0 L 3.1875 0 L 3.1875 -103.65625 L 48.34375 -103.65625 Z M 48.34375 -82.75 "/></g></g></g></g><g clip-path="url(#153adbf3a4)"><g fill="#f1f1f1" fill-opacity="1"><g transform="translate(210.276667, 104.227666)"><g><path d="M 63 -83.1875 L 63 -72.734375 C 63 -67.023438 61.691406 -62.738281 59.078125 -59.875 C 56.472656 -57.019531 52.554688 -55.398438 47.328125 -55.015625 L 47.328125 -54.734375 C 53.035156 -54.347656 57.242188 -52.703125 59.953125 -49.796875 C 62.660156 -46.890625 64.015625 -42.582031 64.015625 -36.875 L 64.015625 0 L 39.046875 0 L 39.046875 -39.78125 C 39.046875 -45.488281 36.722656 -48.34375 32.078125 -48.34375 C 31.015625 -48.34375 30 -48.195312 29.03125 -47.90625 L 29.03125 0 L 3.1875 0 L 3.1875 -103.65625 L 34.40625 -103.65625 C 40.601562 -103.65625 45.679688 -103.191406 49.640625 -102.265625 C 53.609375 -101.347656 56.828125 -99.410156 59.296875 -96.453125 C 61.765625 -93.503906 63 -89.082031 63 -83.1875 Z M 30.921875 -64.015625 C 34.015625 -64.015625 36.140625 -64.71875 37.296875 -66.125 C 38.460938 -67.53125 39.046875 -69.148438 39.046875 -70.984375 L 39.046875 -80.140625 C 39.046875 -81.878906 38.460938 -83.472656 37.296875 -84.921875 C 36.140625 -86.378906 34.0625 -87.109375 31.0625 -87.109375 L 29.03125 -87.109375 L 29.03125 -64.015625 Z M 30.921875 -64.015625 "/></g></g></g></g><g clip-path="url(#7653cc56c5)"><g fill="#f1f1f1" fill-opacity="1"><g transform="translate(277.490151, 104.227666)"><g><path d="M 33.96875 -20.03125 L 34.265625 -20.03125 L 41.078125 -103.65625 L 66.046875 -103.65625 L 51.96875 0 L 14.078125 0 L 1.15625 -103.65625 L 27.875 -103.65625 Z M 33.96875 -20.03125 "/></g></g></g></g><g clip-path="url(#10583bb8c3)"><g fill="#f1f1f1" fill-opacity="1"><g transform="translate(344.70362, 104.227666)"><g><path d="M 29.46875 0 L 2.765625 0 L 2.765625 -103.65625 L 29.46875 -103.65625 Z M 29.46875 0 "/></g></g></g></g><g clip-path="url(#9ffa6fcf03)"><g fill="#f1f1f1" fill-opacity="1"><g transform="translate(376.931265, 104.227666)"><g><path d="M 48.34375 -82.75 L 29.90625 -82.75 L 29.90625 -63.734375 L 47.1875 -63.734375 L 47.1875 -43.703125 L 29.90625 -43.703125 L 29.90625 -20.90625 L 49.796875 -20.90625 L 49.796875 0 L 3.1875 0 L 3.1875 -103.65625 L 48.34375 -103.65625 Z M 48.34375 -82.75 "/></g></g></g></g><g clip-path="url(#44ae8c035c)"><g fill="#f1f1f1" fill-opacity="1"><g transform="translate(428.030927, 104.227666)"><g><path d="M 31.9375 -31.9375 L 32.234375 -31.9375 L 39.625 -103.65625 L 67.65625 -103.65625 L 75.203125 -31.9375 L 75.484375 -31.9375 L 81.734375 -103.65625 L 107.578125 -103.65625 L 95.375 0 L 61.546875 0 L 54.296875 -60.09375 L 54 -60.09375 L 46.015625 0 L 12.046875 0 L 0 -103.65625 L 25.84375 -103.65625 Z M 31.9375 -31.9375 "/></g></g></g></g></g></g><g transform="matrix(1, 0, 0, 1, 409, 277)"><g clip-path="url(#08e910bf1b)"><g fill="#8c52ff" fill-opacity="1"><g transform="translate(0.700714, 106.856232)"><g><path d="M 62.484375 -80.28125 L 62.484375 -66.25 C 62.484375 -58.050781 60.601562 -51.972656 56.84375 -48.015625 C 53.082031 -44.066406 47.828125 -42.09375 41.078125 -42.09375 L 28.9375 -42.09375 L 28.9375 0 L 3.1875 0 L 3.1875 -103.28125 L 38.625 -103.28125 C 46.238281 -103.28125 52.117188 -101.28125 56.265625 -97.28125 C 60.410156 -93.28125 62.484375 -87.613281 62.484375 -80.28125 Z M 39.921875 -65.390625 L 39.921875 -80 C 39.921875 -83.945312 37.894531 -85.921875 33.84375 -85.921875 L 28.9375 -85.921875 L 28.9375 -59.453125 L 33.84375 -59.453125 C 37.894531 -59.453125 39.921875 -61.429688 39.921875 -65.390625 Z M 39.921875 -65.390625 "/></g></g></g><g fill="#8c52ff" fill-opacity="1"><g transform="translate(64.927686, 106.856232)"><g><path d="M 62.78125 -82.890625 L 62.78125 -72.46875 C 62.78125 -66.78125 61.476562 -62.515625 58.875 -59.671875 C 56.269531 -56.828125 52.363281 -55.210938 47.15625 -54.828125 L 47.15625 -54.53125 C 52.84375 -54.144531 57.035156 -52.503906 59.734375 -49.609375 C 62.441406 -46.722656 63.796875 -42.4375 63.796875 -36.75 L 63.796875 0 L 38.90625 0 L 38.90625 -39.640625 C 38.90625 -45.328125 36.59375 -48.171875 31.96875 -48.171875 C 30.90625 -48.171875 29.894531 -48.023438 28.9375 -47.734375 L 28.9375 0 L 3.1875 0 L 3.1875 -103.28125 L 34.28125 -103.28125 C 40.457031 -103.28125 45.519531 -102.820312 49.46875 -101.90625 C 53.425781 -100.988281 56.632812 -99.0625 59.09375 -96.125 C 61.550781 -93.1875 62.78125 -88.773438 62.78125 -82.890625 Z M 30.8125 -63.796875 C 33.894531 -63.796875 36.015625 -64.492188 37.171875 -65.890625 C 38.328125 -67.285156 38.90625 -68.898438 38.90625 -70.734375 L 38.90625 -79.84375 C 38.90625 -81.582031 38.328125 -83.175781 37.171875 -84.625 C 36.015625 -86.070312 33.941406 -86.796875 30.953125 -86.796875 L 28.9375 -86.796875 L 28.9375 -63.796875 Z M 30.8125 -63.796875 "/></g></g></g><g fill="#8c52ff" fill-opacity="1"><g transform="translate(131.903108, 106.856232)"><g><path d="M 66.25 0 L 39.640625 0 L 38.328125 -18.234375 L 28.640625 -18.234375 L 27.34375 0 L 0.71875 0 L 13.75 -103.28125 L 52.078125 -103.28125 Z M 28.640625 -36.453125 L 37.90625 -36.453125 L 33.265625 -85.0625 L 32.984375 -85.0625 Z M 28.640625 -36.453125 "/></g></g></g><g fill="#8c52ff" fill-opacity="1"><g transform="translate(198.878531, 106.856232)"><g><path d="M 35.4375 -105.453125 C 45.46875 -105.453125 52.941406 -102.800781 57.859375 -97.5 C 62.773438 -92.195312 65.234375 -85.347656 65.234375 -76.953125 L 65.234375 -61.765625 L 38.625 -61.765625 L 38.625 -82.015625 C 38.625 -84.046875 38.285156 -85.566406 37.609375 -86.578125 C 36.929688 -87.585938 35.675781 -88.09375 33.84375 -88.09375 C 32.300781 -88.09375 31.238281 -87.414062 30.65625 -86.0625 C 30.082031 -84.71875 29.796875 -83.273438 29.796875 -81.734375 L 29.796875 -21.546875 C 29.796875 -20.003906 30.082031 -18.554688 30.65625 -17.203125 C 31.238281 -15.859375 32.300781 -15.1875 33.84375 -15.1875 C 35.675781 -15.1875 36.929688 -15.765625 37.609375 -16.921875 C 38.285156 -18.078125 38.625 -19.863281 38.625 -22.28125 L 38.625 -44.546875 L 65.234375 -44.546875 L 65.234375 -26.90625 C 65.234375 -21.601562 64.125 -16.734375 61.90625 -12.296875 C 59.6875 -7.859375 56.285156 -4.335938 51.703125 -1.734375 C 47.128906 0.867188 41.515625 2.171875 34.859375 2.171875 C 24.546875 2.171875 16.6875 -0.285156 11.28125 -5.203125 C 5.882812 -10.117188 3.1875 -18.078125 3.1875 -29.078125 L 3.1875 -74.203125 C 3.1875 -84.429688 5.929688 -92.195312 11.421875 -97.5 C 16.921875 -102.800781 24.925781 -105.453125 35.4375 -105.453125 Z M 35.4375 -105.453125 "/></g></g></g><g fill="#8c52ff" fill-opacity="1"><g transform="translate(265.853968, 106.856232)"><g><path d="M 58.4375 -82.453125 L 42.671875 -82.453125 L 42.671875 0 L 16.0625 0 L 16.0625 -82.453125 L 0.296875 -82.453125 L 0.296875 -103.28125 L 58.4375 -103.28125 Z M 58.4375 -82.453125 "/></g></g></g><g fill="#8c52ff" fill-opacity="1"><g transform="translate(324.584024, 106.856232)"><g><path d="M 29.359375 0 L 2.75 0 L 2.75 -103.28125 L 29.359375 -103.28125 Z M 29.359375 0 "/></g></g></g><g fill="#8c52ff" fill-opacity="1"><g transform="translate(356.69749, 106.856232)"><g><path d="M 35.4375 -105.453125 C 45.46875 -105.453125 52.941406 -102.800781 57.859375 -97.5 C 62.773438 -92.195312 65.234375 -85.347656 65.234375 -76.953125 L 65.234375 -61.765625 L 38.625 -61.765625 L 38.625 -82.015625 C 38.625 -84.046875 38.285156 -85.566406 37.609375 -86.578125 C 36.929688 -87.585938 35.675781 -88.09375 33.84375 -88.09375 C 32.300781 -88.09375 31.238281 -87.414062 30.65625 -86.0625 C 30.082031 -84.71875 29.796875 -83.273438 29.796875 -81.734375 L 29.796875 -21.546875 C 29.796875 -20.003906 30.082031 -18.554688 30.65625 -17.203125 C 31.238281 -15.859375 32.300781 -15.1875 33.84375 -15.1875 C 35.675781 -15.1875 36.929688 -15.765625 37.609375 -16.921875 C 38.285156 -18.078125 38.625 -19.863281 38.625 -22.28125 L 38.625 -44.546875 L 65.234375 -44.546875 L 65.234375 -26.90625 C 65.234375 -21.601562 64.125 -16.734375 61.90625 -12.296875 C 59.6875 -7.859375 56.285156 -4.335938 51.703125 -1.734375 C 47.128906 0.867188 41.515625 2.171875 34.859375 2.171875 C 24.546875 2.171875 16.6875 -0.285156 11.28125 -5.203125 C 5.882812 -10.117188 3.1875 -18.078125 3.1875 -29.078125 L 3.1875 -74.203125 C 3.1875 -84.429688 5.929688 -92.195312 11.421875 -97.5 C 16.921875 -102.800781 24.925781 -105.453125 35.4375 -105.453125 Z M 35.4375 -105.453125 "/></g></g></g><g fill="#8c52ff" fill-opacity="1"><g transform="translate(423.672913, 106.856232)"><g><path d="M 48.171875 -82.453125 L 29.796875 -82.453125 L 29.796875 -63.5 L 47.015625 -63.5 L 47.015625 -43.546875 L 29.796875 -43.546875 L 29.796875 -20.828125 L 49.609375 -20.828125 L 49.609375 0 L 3.1875 0 L 3.1875 -103.28125 L 48.171875 -103.28125 Z M 48.171875 -82.453125 "/></g></g></g></g></g><path stroke-linecap="butt" transform="matrix(0.748614, 0, 0, 0.748614, 28.639561, 287.827434)" fill="none" stroke-linejoin="miter" d="M 0.00142131 12.002274 L 448.204911 12.002274 " stroke="#ffffff" stroke-width="24" stroke-opacity="1" stroke-miterlimit="4"/><path stroke-linecap="butt" transform="matrix(0, 0.748614, -0.748614, 0, 46.606609, 153.449559)" fill="none" stroke-linejoin="miter" d="M -0.000454812 11.997656 L 201.502225 11.997656 " stroke="#ffffff" stroke-width="24" stroke-opacity="1" stroke-miterlimit="4"/><path stroke-linecap="butt" transform="matrix(-0.748614, 0.00000000130658, -0.00000000130658, -0.748614, 926.459194, 244.999803)" fill="none" stroke-linejoin="miter" d="M -0.00232912 12.001087 L 216.945567 12.001088 " stroke="#ffffff" stroke-width="24" stroke-opacity="1" stroke-miterlimit="4"/><g clip-path="url(#c6d76efbf6)"><path stroke-linecap="butt" transform="matrix(0.000158788, -0.748614, 0.748614, 0.000158788, 917.448161, 384.49767)" fill="none" stroke-linejoin="miter" d="M -0.000567168 11.997545 L 210.346587 11.99989 " stroke="#ffffff" stroke-width="24" stroke-opacity="1" stroke-miterlimit="4"/></g><path fill="#ddd3ff" d="M 677.027344 217.128906 C 677.027344 219.828125 674.835938 222.019531 672.136719 222.019531 C 669.433594 222.019531 667.246094 219.828125 667.246094 217.128906 L 667.246094 208.949219 C 667.246094 206.246094 669.4375 204.058594 672.136719 204.058594 C 674.835938 204.058594 677.027344 206.246094 677.027344 208.949219 Z M 699.5 208.949219 C 699.5 206.246094 697.308594 204.058594 694.605469 204.058594 C 691.90625 204.058594 689.714844 206.246094 689.714844 208.949219 L 689.714844 217.128906 C 689.714844 219.828125 691.90625 222.019531 694.605469 222.019531 C 697.308594 222.019531 699.5 219.828125 699.5 217.128906 Z M 699.5 208.949219 " fill-opacity="1" fill-rule="nonzero"/><g clip-path="url(#f7525adaf6)"><path fill="#8c52ff" d="M 729.375 216.277344 L 729.375 227.816406 C 729.375 232.097656 725.902344 235.570312 721.617188 235.570312 C 719.980469 235.570312 718.464844 235.0625 717.214844 234.195312 C 710.800781 246.347656 698.042969 254.652344 683.371094 254.652344 C 668.625 254.652344 655.8125 246.261719 649.429688 234.003906 C 648.132812 234.984375 646.523438 235.570312 644.769531 235.570312 C 640.488281 235.570312 637.015625 232.097656 637.015625 227.816406 L 637.015625 216.277344 C 637.015625 211.992188 640.488281 208.523438 644.769531 208.523438 C 645.160156 208.523438 645.542969 208.558594 645.917969 208.617188 C 648.238281 197.320312 655.554688 187.601562 666.148438 182.25 L 670.917969 191.6875 C 661.53125 196.429688 655.699219 205.898438 655.699219 216.40625 C 655.699219 231.664062 668.113281 244.078125 683.371094 244.078125 C 698.628906 244.078125 711.042969 231.664062 711.042969 216.40625 C 711.042969 202.433594 700.632812 190.855469 687.160156 189 C 687.160156 189 687.164062 188.996094 687.164062 188.996094 C 687.164062 188.996094 687.140625 188.996094 687.109375 188.992188 C 686.726562 188.941406 686.339844 188.894531 685.953125 188.859375 C 683.484375 188.390625 678.082031 186.289062 678.082031 176.835938 L 678.082031 169.320312 L 669.449219 169.320312 L 683.371094 153.460938 L 697.296875 169.324219 L 688.660156 169.324219 L 688.660156 175.222656 C 688.769531 176.453125 689.304688 178.347656 691.441406 179.027344 C 691.75 179.09375 692.054688 179.160156 692.359375 179.234375 C 692.382812 179.234375 692.402344 179.242188 692.421875 179.246094 L 692.421875 179.25 C 706.65625 182.714844 717.792969 194.164062 720.804688 208.566406 C 721.074219 208.539062 721.34375 208.523438 721.621094 208.523438 C 725.902344 208.523438 729.375 211.996094 729.375 216.277344 Z M 729.375 216.277344 " fill-opacity="1" fill-rule="nonzero"/></g></svg>